<mxfile host="app.diagrams.net" modified="2024-04-10T08:29:29.808Z" agent="Mozilla/5.0 (Windows NT 10.0; Win64; x64) AppleWebKit/537.36 (KHTML, like Gecko) Chrome/123.0.0.0 Safari/537.36" etag="EJ1rlHVXcixRTC5fmyoz" version="24.2.2" type="github">
  <diagram name="第 1 页" id="azeuemCkckMYmFKfc3Pb">
    <mxGraphModel dx="1434" dy="1915" grid="1" gridSize="10" guides="1" tooltips="1" connect="1" arrows="1" fold="1" page="1" pageScale="1" pageWidth="827" pageHeight="1169" math="0" shadow="0">
      <root>
        <mxCell id="0" />
        <mxCell id="1" parent="0" />
        <mxCell id="LAxkSUaHvumqdf8n7f9d-1" value="&lt;font style=&quot;font-size: 25px;&quot;&gt;事件总线&lt;/font&gt;" style="rounded=1;whiteSpace=wrap;html=1;labelBackgroundColor=none;fillColor=#FAE5C7;strokeColor=#0F8B8D;fontColor=#143642;" vertex="1" parent="1">
          <mxGeometry x="359" y="210" width="110" height="500" as="geometry" />
        </mxCell>
        <mxCell id="LAxkSUaHvumqdf8n7f9d-4" value="&lt;font style=&quot;font-size: 20px;&quot;&gt;状态管理器&lt;/font&gt;" style="swimlane;whiteSpace=wrap;html=1;labelBackgroundColor=none;fillColor=#FAE5C7;strokeColor=#0F8B8D;fontColor=#143642;" vertex="1" parent="1">
          <mxGeometry x="160" y="-80" width="470" height="130" as="geometry" />
        </mxCell>
        <mxCell id="LAxkSUaHvumqdf8n7f9d-5" value="&lt;font style=&quot;font-size: 20px;&quot;&gt;状态规则&lt;/font&gt;" style="rounded=1;whiteSpace=wrap;html=1;labelBackgroundColor=none;fillColor=#FAE5C7;strokeColor=#0F8B8D;fontColor=#143642;" vertex="1" parent="LAxkSUaHvumqdf8n7f9d-4">
          <mxGeometry x="20" y="50" width="120" height="60" as="geometry" />
        </mxCell>
        <mxCell id="LAxkSUaHvumqdf8n7f9d-6" value="&lt;font style=&quot;font-size: 20px;&quot;&gt;状态规则&lt;/font&gt;" style="rounded=1;whiteSpace=wrap;html=1;labelBackgroundColor=none;fillColor=#FAE5C7;strokeColor=#0F8B8D;fontColor=#143642;" vertex="1" parent="LAxkSUaHvumqdf8n7f9d-4">
          <mxGeometry x="170" y="50" width="120" height="60" as="geometry" />
        </mxCell>
        <mxCell id="LAxkSUaHvumqdf8n7f9d-7" value="&lt;font style=&quot;font-size: 20px;&quot;&gt;...&lt;/font&gt;" style="rounded=1;whiteSpace=wrap;html=1;labelBackgroundColor=none;fillColor=#FAE5C7;strokeColor=#0F8B8D;fontColor=#143642;" vertex="1" parent="LAxkSUaHvumqdf8n7f9d-4">
          <mxGeometry x="320" y="50" width="120" height="60" as="geometry" />
        </mxCell>
        <mxCell id="LAxkSUaHvumqdf8n7f9d-10" value="&lt;font style=&quot;font-size: 20px;&quot;&gt;事件发布&lt;/font&gt;" style="rounded=1;whiteSpace=wrap;html=1;labelBackgroundColor=none;fillColor=#FAE5C7;strokeColor=#0F8B8D;fontColor=#143642;" vertex="1" parent="1">
          <mxGeometry x="70" y="290" width="120" height="60" as="geometry" />
        </mxCell>
        <mxCell id="LAxkSUaHvumqdf8n7f9d-12" value="" style="shape=message;html=1;html=1;outlineConnect=0;labelPosition=center;verticalLabelPosition=bottom;align=center;verticalAlign=top;labelBackgroundColor=none;fillColor=#FAE5C7;strokeColor=#0F8B8D;fontColor=#143642;" vertex="1" parent="1">
          <mxGeometry x="250" y="240" width="60" height="40" as="geometry" />
        </mxCell>
        <mxCell id="LAxkSUaHvumqdf8n7f9d-19" value="" style="edgeStyle=orthogonalEdgeStyle;rounded=0;orthogonalLoop=1;jettySize=auto;html=1;labelBackgroundColor=none;strokeColor=#A8201A;fontColor=default;" edge="1" parent="1" source="LAxkSUaHvumqdf8n7f9d-15" target="LAxkSUaHvumqdf8n7f9d-17">
          <mxGeometry relative="1" as="geometry" />
        </mxCell>
        <mxCell id="LAxkSUaHvumqdf8n7f9d-15" value="&lt;font style=&quot;font-size: 20px;&quot;&gt;事件执行&lt;/font&gt;" style="rounded=1;whiteSpace=wrap;html=1;labelBackgroundColor=none;fillColor=#FAE5C7;strokeColor=#0F8B8D;fontColor=#143642;" vertex="1" parent="1">
          <mxGeometry x="590" y="300" width="120" height="60" as="geometry" />
        </mxCell>
        <mxCell id="LAxkSUaHvumqdf8n7f9d-16" value="" style="shape=message;html=1;html=1;outlineConnect=0;labelPosition=center;verticalLabelPosition=bottom;align=center;verticalAlign=top;labelBackgroundColor=none;fillColor=#FAE5C7;strokeColor=#0F8B8D;fontColor=#143642;" vertex="1" parent="1">
          <mxGeometry x="510" y="240" width="60" height="40" as="geometry" />
        </mxCell>
        <mxCell id="LAxkSUaHvumqdf8n7f9d-20" value="" style="edgeStyle=orthogonalEdgeStyle;rounded=0;orthogonalLoop=1;jettySize=auto;html=1;labelBackgroundColor=none;strokeColor=#A8201A;fontColor=default;" edge="1" parent="1" source="LAxkSUaHvumqdf8n7f9d-17" target="LAxkSUaHvumqdf8n7f9d-18">
          <mxGeometry relative="1" as="geometry" />
        </mxCell>
        <mxCell id="LAxkSUaHvumqdf8n7f9d-17" value="&lt;font style=&quot;font-size: 20px;&quot;&gt;成功执行&lt;/font&gt;" style="rounded=1;whiteSpace=wrap;html=1;labelBackgroundColor=none;fillColor=#FAE5C7;strokeColor=#0F8B8D;fontColor=#143642;" vertex="1" parent="1">
          <mxGeometry x="590" y="420" width="120" height="60" as="geometry" />
        </mxCell>
        <mxCell id="LAxkSUaHvumqdf8n7f9d-18" value="&lt;font style=&quot;font-size: 20px;&quot;&gt;执行失败&lt;/font&gt;" style="rounded=1;whiteSpace=wrap;html=1;labelBackgroundColor=none;fillColor=#FAE5C7;strokeColor=#0F8B8D;fontColor=#143642;" vertex="1" parent="1">
          <mxGeometry x="590" y="540" width="120" height="60" as="geometry" />
        </mxCell>
        <mxCell id="LAxkSUaHvumqdf8n7f9d-26" value="&lt;font style=&quot;font-size: 20px;&quot;&gt;状态规则&lt;/font&gt;" style="swimlane;horizontal=0;whiteSpace=wrap;html=1;startSize=23;labelBackgroundColor=none;fillColor=#FAE5C7;strokeColor=#0F8B8D;fontColor=#143642;" vertex="1" parent="1">
          <mxGeometry x="20" y="60" width="790" height="100" as="geometry" />
        </mxCell>
        <mxCell id="LAxkSUaHvumqdf8n7f9d-29" value="" style="edgeStyle=orthogonalEdgeStyle;rounded=0;orthogonalLoop=1;jettySize=auto;html=1;labelBackgroundColor=none;strokeColor=#A8201A;fontColor=default;" edge="1" parent="LAxkSUaHvumqdf8n7f9d-26" source="LAxkSUaHvumqdf8n7f9d-27" target="LAxkSUaHvumqdf8n7f9d-28">
          <mxGeometry relative="1" as="geometry" />
        </mxCell>
        <mxCell id="LAxkSUaHvumqdf8n7f9d-27" value="&lt;font style=&quot;font-size: 20px;&quot;&gt;绑定事件&lt;/font&gt;" style="rounded=1;whiteSpace=wrap;html=1;labelBackgroundColor=none;fillColor=#FAE5C7;strokeColor=#0F8B8D;fontColor=#143642;" vertex="1" parent="LAxkSUaHvumqdf8n7f9d-26">
          <mxGeometry x="70" y="20" width="120" height="60" as="geometry" />
        </mxCell>
        <mxCell id="LAxkSUaHvumqdf8n7f9d-32" value="" style="edgeStyle=orthogonalEdgeStyle;rounded=0;orthogonalLoop=1;jettySize=auto;html=1;labelBackgroundColor=none;strokeColor=#A8201A;fontColor=default;" edge="1" parent="LAxkSUaHvumqdf8n7f9d-26" source="LAxkSUaHvumqdf8n7f9d-28" target="LAxkSUaHvumqdf8n7f9d-31">
          <mxGeometry relative="1" as="geometry" />
        </mxCell>
        <mxCell id="LAxkSUaHvumqdf8n7f9d-28" value="&lt;span style=&quot;font-size: 20px;&quot;&gt;绑定阶段&lt;/span&gt;" style="rounded=1;whiteSpace=wrap;html=1;labelBackgroundColor=none;fillColor=#FAE5C7;strokeColor=#0F8B8D;fontColor=#143642;" vertex="1" parent="LAxkSUaHvumqdf8n7f9d-26">
          <mxGeometry x="260" y="20" width="120" height="60" as="geometry" />
        </mxCell>
        <mxCell id="LAxkSUaHvumqdf8n7f9d-34" value="" style="edgeStyle=orthogonalEdgeStyle;rounded=0;orthogonalLoop=1;jettySize=auto;html=1;labelBackgroundColor=none;strokeColor=#A8201A;fontColor=default;" edge="1" parent="LAxkSUaHvumqdf8n7f9d-26" source="LAxkSUaHvumqdf8n7f9d-31" target="LAxkSUaHvumqdf8n7f9d-33">
          <mxGeometry relative="1" as="geometry" />
        </mxCell>
        <mxCell id="LAxkSUaHvumqdf8n7f9d-31" value="&lt;span style=&quot;font-size: 20px;&quot;&gt;状态流转&lt;/span&gt;" style="rounded=1;whiteSpace=wrap;html=1;labelBackgroundColor=none;fillColor=#FAE5C7;strokeColor=#0F8B8D;fontColor=#143642;" vertex="1" parent="LAxkSUaHvumqdf8n7f9d-26">
          <mxGeometry x="450" y="20" width="120" height="60" as="geometry" />
        </mxCell>
        <mxCell id="LAxkSUaHvumqdf8n7f9d-33" value="&lt;font style=&quot;font-size: 20px;&quot;&gt;动作执行&lt;/font&gt;" style="rounded=1;whiteSpace=wrap;html=1;labelBackgroundColor=none;fillColor=#FAE5C7;strokeColor=#0F8B8D;fontColor=#143642;" vertex="1" parent="LAxkSUaHvumqdf8n7f9d-26">
          <mxGeometry x="640" y="20" width="120" height="60" as="geometry" />
        </mxCell>
        <mxCell id="LAxkSUaHvumqdf8n7f9d-35" value="" style="endArrow=none;dashed=1;html=1;dashPattern=1 3;strokeWidth=2;rounded=0;labelBackgroundColor=none;strokeColor=#A8201A;fontColor=default;" edge="1" parent="1">
          <mxGeometry width="50" height="50" relative="1" as="geometry">
            <mxPoint x="60" y="330" as="sourcePoint" />
            <mxPoint x="60" y="160" as="targetPoint" />
            <Array as="points">
              <mxPoint x="60" y="250" />
            </Array>
          </mxGeometry>
        </mxCell>
        <mxCell id="LAxkSUaHvumqdf8n7f9d-39" value="&lt;font style=&quot;font-size: 20px;&quot;&gt;触发绑定规则&lt;/font&gt;" style="edgeLabel;html=1;align=center;verticalAlign=middle;resizable=0;points=[];labelBackgroundColor=none;fontColor=#143642;" vertex="1" connectable="0" parent="LAxkSUaHvumqdf8n7f9d-35">
          <mxGeometry x="0.1294" y="-4" relative="1" as="geometry">
            <mxPoint as="offset" />
          </mxGeometry>
        </mxCell>
        <mxCell id="LAxkSUaHvumqdf8n7f9d-36" value="" style="endArrow=none;dashed=1;html=1;dashPattern=1 3;strokeWidth=2;rounded=0;labelBackgroundColor=none;strokeColor=#A8201A;fontColor=default;" edge="1" parent="1">
          <mxGeometry width="50" height="50" relative="1" as="geometry">
            <mxPoint x="720" y="330" as="sourcePoint" />
            <mxPoint x="720" y="170" as="targetPoint" />
          </mxGeometry>
        </mxCell>
        <mxCell id="LAxkSUaHvumqdf8n7f9d-37" value="" style="endArrow=none;dashed=1;html=1;dashPattern=1 3;strokeWidth=2;rounded=0;labelBackgroundColor=none;strokeColor=#A8201A;fontColor=default;" edge="1" parent="1">
          <mxGeometry width="50" height="50" relative="1" as="geometry">
            <mxPoint x="730" y="450" as="sourcePoint" />
            <mxPoint x="770" y="170" as="targetPoint" />
            <Array as="points">
              <mxPoint x="770" y="450" />
            </Array>
          </mxGeometry>
        </mxCell>
        <mxCell id="LAxkSUaHvumqdf8n7f9d-38" value="" style="endArrow=none;dashed=1;html=1;dashPattern=1 3;strokeWidth=2;rounded=0;labelBackgroundColor=none;strokeColor=#A8201A;fontColor=default;" edge="1" parent="1">
          <mxGeometry width="50" height="50" relative="1" as="geometry">
            <mxPoint x="720" y="580" as="sourcePoint" />
            <mxPoint x="800" y="180" as="targetPoint" />
            <Array as="points">
              <mxPoint x="800" y="580" />
            </Array>
          </mxGeometry>
        </mxCell>
      </root>
    </mxGraphModel>
  </diagram>
</mxfile>
